<?xml version="1.0" encoding="utf-8"?>
<!-- Generator: Adobe Illustrator 18.1.1, SVG Export Plug-In . SVG Version: 6.00 Build 0)  -->
<!DOCTYPE svg PUBLIC "-//W3C//DTD SVG 1.1//EN" "http://www.w3.org/Graphics/SVG/1.1/DTD/svg11.dtd">
<svg version="1.1" id="Layer_1" xmlns="http://www.w3.org/2000/svg" xmlns:xlink="http://www.w3.org/1999/xlink" x="0px" y="0px"
	 width="32px" height="32px" viewBox="0 0 32 32" enable-background="new 0 0 32 32" xml:space="preserve">
<g>
	<circle fill="#FFFFFF" cx="15.7" cy="16.1" r="15.6"/>
	<polygon fill="#00857D" points="22,15.2 17.1,20.1 17.1,6.8 15.1,6.8 15.1,20.1 10.1,15.2 8.4,16.8 16,24.5 23.7,16.8 	"/>
	<path fill="#00857D" d="M32,16c0-8.8-7.2-16-16-16C7.2,0,0,7.2,0,16c0,8.8,7.2,16,16,16S32,24.8,32,16z M1.1,16
		C1.1,7.8,7.8,1.1,16,1.1S30.9,7.8,30.9,16S24.2,30.9,16,30.9S1.1,24.2,1.1,16z"/>
</g>
</svg>
