<?xml version="1.0"?>
<svg version="1.1" xmlns="http://www.w3.org/2000/svg" xmlns:xlink="http://www.w3.org/1999/xlink" x="0px" y="0px"
	 viewBox="0 0 88 88" enable-background="new 0 0 88 88" xml:space="preserve">
 <g>
  <title>background</title>
  <rect x="-1" y="-1" width="90" height="90" id="canvas_background" fill="none"/>
 </g>

 <g>
  <title>Layer 1</title>
  <g id="Layer_1" display="none">
   <g display="inline" id="svg_1">
    <path fill="#006D5D" d="m16.200001,25.200001l0,36l53.999996,0l0,-36l-53.999996,0zm52.200001,34.299999l-50.400002,0l0,-32.5l50.400002,0l0,32.5z" id="svg_2"/>
    <path fill="#006D5D" d="m64.800003,30.6l-19.800003,0l0,10.800001l19.800003,0l0,-10.800001l0,0zm-1.800003,9.1l-16.200001,0l0,-7.200001l16.200001,0l0,7.200001z" id="svg_3"/>
    <rect x="21.6" y="30.6" fill="#006D5D" width="19.8" height="10.8" id="svg_4"/>
    <path fill="#006D5D" d="m41.5,45l-19.9,0l0,10.799999l19.800001,0l0,-10.799999l0.099998,0zm-1.799999,9l-16.200001,0l0,-7.200001l16.200001,0l0,7.200001z" id="svg_5"/>
    <path fill="#006D5D" d="m64.800003,45l-19.800003,0l0,10.799999l19.800003,0l0,-10.799999l0,0zm-1.800003,9l-16.200001,0l0,-7.200001l16.200001,0l0,7.200001z" id="svg_6"/>
   </g>
  </g>
  <g id="Layer_2" display="none">
   <g display="inline" id="svg_7">
    <g id="svg_8">
     <path fill="#006D5D" d="m56,26.5c-3.299999,-3.299999 -7.799999,-5.299999 -12.700001,-5.299999s-9.5,2 -12.699999,5.299999c-3.300001,3.299999 -5.300001,7.799999 -5.300001,12.700001s2,9.5 5.300001,12.700001c3.300001,3.299999 7.800001,5.299999 12.699999,5.299999l0,8.999996l12.700001,-13.499996c3.299999,-3.400002 5.299999,-8.200001 5.299999,-13.5c-0.099998,-4.900002 -2.099998,-9.400002 -5.299999,-12.700001zm-1.099998,25.200001l-10.100002,10.799999l0,-5.200001l0,-1.5l-1.5,0c-4.399998,0 -8.599998,-1.700001 -11.699999,-4.799999c-3.1,-3.099998 -4.800001,-7.299999 -4.800001,-11.700001s1.700001,-8.5 4.800001,-11.699999c3.1,-3.1 7.300001,-4.800001 11.699999,-4.800001s8.600002,1.700001 11.700001,4.800001c3.099998,3.1 4.799999,7.300001 4.799999,11.699999c0,4.700001 -1.799999,9.100002 -4.899998,12.400002z" id="svg_9"/>
     <circle fill="#006D5D" cx="43.2" cy="39.2" r="2.2" id="svg_10"/>
     <circle fill="#006D5D" cx="50.8" cy="39.2" r="2.2" id="svg_11"/>
     <circle fill="#006D5D" cx="35.8" cy="39.2" r="2.2" id="svg_12"/>
    </g>
   </g>
  </g>
  <g id="Layer_3" display="none">
   <g display="inline" id="svg_13">
    <rect x="22.1" y="26.2" fill="#006D5D" width="43.9" height="6.2" id="svg_14"/>
    <rect x="22.1" y="40.2" fill="#006D5D" width="43.9" height="6.2" id="svg_15"/>
    <rect x="22.1" y="54.2" fill="#006D5D" width="43.9" height="6.2" id="svg_16"/>
   </g>
  </g>
  <g id="Layer_4" display="none">
   <g display="inline" id="svg_17">
    <rect x="22.1" y="26.2" fill="#FFFFFF" width="43.9" height="6.2" id="svg_18"/>
    <rect x="22.1" y="40.2" fill="#FFFFFF" width="43.9" height="6.2" id="svg_19"/>
    <rect x="22.1" y="54.2" fill="#FFFFFF" width="43.9" height="6.2" id="svg_20"/>
   </g>
  </g>
  <g id="Layer_5" display="none">
   <g display="inline" id="svg_21">
    <path fill="#325D80" d="m43.5,55.200001c12.700001,0 22.900002,-10.299999 22.900002,-22.900002s-10.200001,-22.9 -22.900002,-22.9s-22.9,10.200001 -22.9,22.9s10.199999,22.900002 22.9,22.900002zm0,-43.500001c11.400002,0 20.599998,9.3 20.599998,20.599999s-9.299999,20.600002 -20.599998,20.600002s-20.6,-9.300003 -20.6,-20.600002s9.199999,-20.599999 20.6,-20.599999z" id="svg_22"/>
    <path fill="#325D80" d="m61.799999,59.799999l-36.599998,0c-5.1,0 -9.200001,4.100002 -9.200001,9.200001l0,9.199997l55,0l0,-9.199997c0,-5.099998 -4.099998,-9.200001 -9.200001,-9.200001z" id="svg_23"/>
   </g>
  </g>
  <g id="Layer_15" display="none">
   <g display="inline" id="svg_24">
    <path fill="#5A5A5B" d="m43.200001,55.200001c12.700001,0 22.899998,-10.299999 22.899998,-22.900002s-10.199997,-22.9 -22.899998,-22.9s-22.900002,10.200001 -22.900002,22.9s10.300001,22.900002 22.900002,22.900002zm0,-43.500001c11.399998,0 20.599998,9.3 20.599998,20.599999s-9.299999,20.600002 -20.599998,20.600002s-20.6,-9.300003 -20.6,-20.600002s9.299999,-20.599999 20.6,-20.599999z" id="svg_25"/>
    <path fill="#5A5A5B" d="m61.599998,59.799999l-36.699999,0c-5.1,0 -9.2,4.100002 -9.2,9.200001l0,9.199997l54.99999,0l0,-9.199997c0.100014,-5.099998 -4.099991,-9.200001 -9.099991,-9.200001z" id="svg_26"/>
   </g>
  </g>
  <g stroke="null" id="Layer_6">
   <g stroke="null" id="svg_27">
    <g stroke="null" id="svg_28">
     <rect stroke="null" x="25.287748" y="43.210977" transform="matrix(2.278678931320238,2.312426315417054,-2.3117879414334386,2.2793081626267506,45.63966197618965,-156.75857095130362) " fill="#ffffff" width="36.9" height="1" id="svg_29"/>
    </g>
    <g stroke="null" id="svg_30">
     <rect stroke="null" x="43.18771" y="25.31094" transform="matrix(2.277705136905144,2.313400378734416,-2.3127617358485324,2.278334099309389,45.72210990333431,-156.75857095130362) " fill="#ffffff" width="1" height="36.9" id="svg_31"/>
    </g>
   </g>
  </g>
  <g id="Layer_7" display="none">
   <g display="inline" id="svg_32">
    <path fill="#325D80" d="m43.5,55.200001c12.700001,0 22.900002,-10.299999 22.900002,-22.900002s-10.200001,-22.9 -22.900002,-22.9s-22.9,10.200001 -22.9,22.9s10.199999,22.900002 22.9,22.900002zm0,-43.500001c11.400002,0 20.599998,9.3 20.599998,20.599999s-9.299999,20.600002 -20.599998,20.600002s-20.6,-9.300003 -20.6,-20.600002s9.199999,-20.599999 20.6,-20.599999z" id="svg_33"/>
    <path fill="#325D80" d="m61.799999,59.799999l-36.599998,0c-5.1,0 -9.200001,4.100002 -9.200001,9.200001l0,9.199997l55,0l0,-9.199997c0,-5.099998 -4.099998,-9.200001 -9.200001,-9.200001z" id="svg_34"/>
   </g>
  </g>
  <g id="Layer_10" display="none">
   <g display="inline" id="svg_35">
    <polygon fill="#D54427" points="52.6,32.2 44,40.8 35.4,32.2 32.6,35 41.1,43.6 32.6,52.2 35.4,55 44,46.5 52.6,55 55.4,52.2     46.8,43.6 55.4,35   " id="svg_36"/>
    <path fill="#D54427" d="m44,15.6c-15.5,0 -28,12.5 -28,27.999998s12.5,28 28,28s28,-12.5 28,-28s-12.599998,-27.999998 -28,-27.999998zm0,53.999998c-14.299999,0 -26,-11.699997 -26,-26s11.700001,-25.999998 26,-25.999998s26,11.699999 26,25.999998s-11.700001,26 -26,26z" id="svg_37"/>
   </g>
  </g>
  <g id="Layer_9" display="none">
   <path fill="#006D5D" d="m83.099998,36l-29,-2.599998l-10.5,-29.000001l-10.599998,29.000001l-29,2.599998l23.700001,18.400002l-7.900002,29l23.700001,-18.400002l23.699997,18.400002l-7.899998,-29l23.799999,-18.400002zm-20.5,40.5l-17.5,-13.599998l-1.599998,-1.300003l-1.599998,1.300003l-17.500002,13.599998l5.800001,-21.400002l0.5,-1.699997l-1.400002,-1.100002l-18.4,-14.299999l22.300001,-2l1.700001,-0.200001l0.599998,-1.599998l8.099998,-22.200001l8.100002,22.200001l0.599998,1.599998l1.700001,0.200001l22.300003,2l-18.600002,14.400002l-1.400002,1.099998l0.5,1.700001l5.799999,21.299999z" id="svg_38"/>
  </g>
  <g id="Layer_11" display="none">
   <g display="inline" id="svg_39">
    <polygon fill="#006D5D" points="39.2,48.8 32.6,42.2 29.8,45 39.2,54.5 56.6,37 53.8,34.2   " id="svg_40"/>
    <path fill="#006D5D" d="m43.200001,15.6c-15.5,0 -28.000001,12.5 -28.000001,27.999998s12.500001,28 28.000001,28s27.999996,-12.5 27.999996,-28s-12.599998,-27.999998 -27.999996,-27.999998zm0,53.999998c-14.300001,0 -26,-11.699997 -26,-26s11.699999,-25.999998 26,-25.999998s25.999996,11.699999 25.999996,25.999998s-11.699997,26 -25.999996,26z" id="svg_41"/>
   </g>
  </g>
  <g id="Layer_12" display="none">
   <g display="inline" id="svg_42">
    <g id="svg_43">
     <g id="svg_44">
      <polygon fill="#006D5D" points="39.1,37 32.9,30.7 29,34.6 39.1,44.7 57.5,26.4 53.6,22.5     " id="svg_45"/>
     </g>
     <g id="svg_46">
      <path fill="#006D5D" d="m73.300003,32.700001c0,-16.6 -13.500004,-30.100001 -30.100002,-30.100001c-16.6,0 -30.1,13.5 -30.1,30.100001c0,11.5 6.5,21.5 16,26.599998l-2.300001,25.399998l16.400002,-10.899994l16.399998,10.899994l-2.299999,-25.399998c9.500004,-5.099998 16.000004,-15.099998 16.000004,-26.599998zm-30.100002,27.299999c-15.1,0 -27.300001,-12.200001 -27.300001,-27.299999s12.200001,-27.400001 27.300001,-27.400001s27.299999,12.2 27.299999,27.299998s-12.200001,27.400002 -27.299999,27.400002z" id="svg_47"/>
     </g>
    </g>
   </g>
  </g>
  <g id="Layer_13" display="none">
   <g display="inline" id="svg_48">
    <g id="svg_49">
     <circle fill="#006D5D" cx="56" cy="43.5" r="21.2" id="svg_50"/>
     <polygon fill="#006D5D" points="57.8,24 9.8,44.4 57.8,63.4    " id="svg_51"/>
    </g>
    <g id="Icon_13_">
     <g id="svg_52">
      <rect x="52.6" y="36.2" transform="matrix(0.7071,0.7071,-0.7071,0.7071,47.3733,-26.3303) " fill="#FFFFFF" width="5.7" height="15.6" id="svg_53"/>
      <rect x="62.6" y="32.7" transform="matrix(-0.7071,0.7071,-0.7071,-0.7071,134.3194,15.4011) " fill="#FFFFFF" width="2.8" height="5.7" id="svg_54"/>
      <polygon fill="#FFFFFF" points="45,54.5 48.6,53.1 46.4,50.9     " id="svg_55"/>
     </g>
    </g>
   </g>
  </g>
  <g id="Layer_14" display="none"/>
  <g id="Layer_16" display="none">
   <g display="inline" id="svg_56">
    <path fill="#325D80" d="m44,52.400002c4.900002,0 8.799999,-4 8.799999,-8.800003l0,-2.599998l0,-1.299999l0,-2.5l0,-1.200001l0,-2.5c0,-4.9 -4,-8.799999 -8.799999,-8.799999c-4.900002,0 -8.799999,4 -8.799999,8.799999l0,2.5l0,1.299999l0,2.5l0,1.200001l0,2.5c0,4.900002 4,8.900002 8.799999,8.900002zm-3.799999,-11.400002l-3.799999,0l0,-1.299999l3.799999,0c0.700001,0 1.299999,-0.600002 1.299999,-1.299999c0,-0.700001 -0.599998,-1.300003 -1.299999,-1.300003l-3.799999,0l0,-1.099998l3.799999,0c0.700001,0 1.299999,-0.599998 1.299999,-1.299999c0,-0.700001 -0.599998,-1.299999 -1.299999,-1.299999l-3.799999,0c0,-4.200001 3.399998,-7.600002 7.599998,-7.600002c4.200001,0 7.599998,3.400002 7.599998,7.600002l-3.799999,0c-0.700001,0 -1.299999,0.599998 -1.299999,1.299999c0,0.700001 0.599998,1.299999 1.299999,1.299999l3.799999,0l0,1.299999l-3.799999,0c-0.700001,0 -1.299999,0.600002 -1.299999,1.299999c0,0.700001 0.599998,1.300003 1.299999,1.300003l3.799999,0l0,1.099998l-3.799999,0c-0.700001,0 -1.299999,0.599998 -1.299999,1.299999c0,0.700001 0.599998,1.299999 1.299999,1.299999l3.799999,0c0,4.200001 -3.399998,7.600002 -7.599998,7.600002c-4.200001,0 -7.599998,-3.400002 -7.599998,-7.600002l3.799999,0c0.700001,0 1.299999,-0.599998 1.299999,-1.299999c0,-0.700001 -0.599998,-1.299999 -1.299999,-1.299999z" id="svg_57"/>
    <path fill="#325D80" d="m56,43.5l-1.299999,0c0,5.900002 -4.799999,10.700001 -10.700001,10.700001c-5.900002,0 -10.700001,-4.799999 -10.700001,-10.700001l-1.299999,0c0,6.400002 5,11.599998 11.299999,12l0,5.700001l-4.299999,0l0,1.299999l4.400002,0l1.299999,0l4.399998,0l0,-1.299999l-4.399998,0l0,-5.700001c6.299999,-0.299999 11.299999,-5.599998 11.299999,-12z" id="svg_58"/>
   </g>
  </g>
 </g>
</svg>