<?xml version="1.0" encoding="utf-8"?>
<!-- Generator: Adobe Illustrator 18.1.1, SVG Export Plug-In . SVG Version: 6.00 Build 0)  -->
<!DOCTYPE svg PUBLIC "-//W3C//DTD SVG 1.1//EN" "http://www.w3.org/Graphics/SVG/1.1/DTD/svg11.dtd">
<svg version="1.1" id="Layer_1" xmlns="http://www.w3.org/2000/svg" xmlns:xlink="http://www.w3.org/1999/xlink" x="0px" y="0px"
	 viewBox="0 0 88 88" enable-background="new 0 0 88 88" xml:space="preserve">
<g id="Default" display="none">
	<g display="inline">
		<g>
			<g>
				<g>
					<g opacity="0.75">
						<g>
							<path fill="#054366" d="M51.7,40.7c-1.1,0.7-2.2,1.4-3.3,2.1c-1.1,0.7-2.2,1.5-3.3,2.3c-0.3,0.2-0.6,0.4-0.8,0.6
								c-0.3,0.2-0.5,0.4-0.8,0.6c-0.5,0.4-1.1,0.8-1.6,1.2c-2.2,1.7-4.4,3.4-6.4,5.3c-2,1.8-3.9,3.6-5.7,5.5c0.3,0.4,0.5,0.7,0.7,1
								c1.8-1.9,3.7-3.8,5.8-5.5c2-1.8,4.2-3.7,6.3-5.3c0.5-0.4,1.1-0.8,1.6-1.2c0.3-0.2,0.5-0.4,0.8-0.6s0.5-0.4,0.8-0.6
								c1.1-0.8,2.2-1.5,3.2-2.3c1.1-0.7,2.2-1.4,3.2-2.1c0.1-0.1,0.3-0.2,0.4-0.2c-0.2-0.3-0.4-0.5-0.5-0.8
								C52,40.6,51.9,40.7,51.7,40.7z"/>
						</g>
						<g>
							<path fill="#054366" d="M70.3,31.9c-0.6,0.2-1.2,0.4-1.9,0.7c-0.4,0.1-0.7,0.3-1.1,0.4c-0.4,0.1-0.7,0.3-1.1,0.4
								c-0.8,0.3-1.6,0.7-2.5,1c-0.9,0.4-1.8,0.8-2.7,1.3c-0.5,0.3-1.1,0.5-1.7,0.8c0.1,0.1,0.2,0.3,0.3,0.4c0,0,0.1,0.1,0.1,0.2
								c0.5-0.3,1-0.6,1.5-0.8c0.9-0.5,1.8-0.9,2.7-1.3c0.9-0.4,1.7-0.7,2.5-1.1c0.4-0.2,0.7-0.4,1.1-0.5c0.4-0.1,0.7-0.3,1.1-0.4
								c0.7-0.3,1.3-0.5,1.8-0.7c0.6-0.2,1.1-0.4,1.5-0.5c0-0.1-0.1-0.1-0.1-0.2l0,0C71.4,31.6,70.8,31.7,70.3,31.9z"/>
						</g>
						<g>
							<path fill="#054366" d="M24.8,64c0.3,0.4,0.5,0.7,0.7,1.1c1.4-1.7,2.8-3.3,4.4-5c-0.3-0.4-0.5-0.7-0.7-1
								C27.6,60.6,26.1,62.3,24.8,64z"/>
						</g>
						<g>
							<path fill="#054366" d="M24.1,64.8c-0.4,0.5-0.7,0.9-1.1,1.4c0.3,0.3,0.6,0.6,0.9,0.8c0.3-0.4,0.6-0.8,0.9-1.2
								C24.6,65.5,24.3,65.2,24.1,64.8z"/>
						</g>
						<g>
							<path fill="#054366" d="M58.8,36.7c-0.3,0.1-0.6,0.3-0.8,0.4c-0.5,0.3-1,0.5-1.5,0.8c-0.5,0.3-1,0.6-1.5,0.9
								c-0.5,0.3-1.1,0.6-1.6,0.9c-0.1,0.1-0.3,0.2-0.4,0.3c0.2,0.3,0.4,0.5,0.5,0.8c0.1-0.1,0.3-0.2,0.4-0.3c0.5-0.3,1-0.6,1.5-1
								c0.5-0.3,1-0.6,1.5-0.9c0.5-0.3,1-0.6,1.5-0.8c0.3-0.2,0.6-0.4,0.9-0.5c0,0,0-0.1-0.1-0.1C59.1,37,59,36.9,58.8,36.7z"/>
						</g>
					</g>
					<g opacity="0.5">
						<g>
							<path fill="#054366" d="M37.3,21.6c0.9,1,1.8,2,2.7,3c-0.3,0.4-0.5,0.9-0.6,1.4c-0.2,1.6,0.8,3.1,2.4,3.3
								c0.7,0.1,1.3,0,1.8-0.4c1.9,2.4,3.7,4.8,5.4,7.2c0.1,0.2,0.2,0.3,0.4,0.5c0.1,0.2,0.3,0.4,0.4,0.7c0.7,1.1,1.5,2.2,2.2,3.3
								c0.2,0.3,0.4,0.5,0.5,0.8c2.1,3.3,4,6.5,5.8,9.6c2.7,4.9,4.9,9.7,6.7,14.2c0.1,0.2,0.2,0.4,0.3,0.7c0.2-0.1,0.3-0.3,0.5-0.5
								c0-0.1-0.1-0.3-0.1-0.4c-1.7-4.6-3.9-9.5-6.6-14.4c-1.7-3.2-3.6-6.5-5.7-9.8c-0.2-0.3-0.4-0.5-0.5-0.8
								c-0.7-1.1-1.5-2.2-2.2-3.3c-0.1-0.2-0.3-0.4-0.4-0.7c-0.1-0.2-0.2-0.4-0.4-0.5c-1.7-2.4-3.5-4.9-5.4-7.3
								c0.4-0.4,0.6-0.9,0.7-1.4c0.2-1.6-0.8-3.1-2.4-3.3c-0.7-0.1-1.3,0-1.8,0.4c-0.9-1.1-1.8-2.1-2.8-3.1
								c-1.1-1.1-2.1-2.2-3.3-3.3c0.2,0,0.4,0,0.7-0.1c1.8-0.2,3.6-0.4,5.3-0.4c0.4,0,0.8,0,1.3,0c1.7,0,3.3,0,4.8,0
								c3.7,0.1,7.1,0.4,10.2,0.7c0.8,0.1,1.5,0.2,2.3,0.3c0.2,0,0.4,0,0.5,0.1c-0.3-0.2-0.6-0.4-0.8-0.5c-0.7-0.1-1.3-0.2-1.9-0.3
								c-3.2-0.4-6.6-0.7-10.3-0.8c-1.7,0-3.5,0-5.3,0c-0.4,0-0.8,0-1.3,0c-1.6,0.1-3.2,0.2-4.8,0.4c-0.4,0-0.7,0.1-1.1,0.1
								c-0.5-0.5-1-1-1.5-1.5c-0.4,0.2-0.8,0.3-1.2,0.5c0.4,0.4,0.9,0.8,1.3,1.2c-1.9,0.3-3.7,0.7-5.6,1.2c-0.5,0.3-0.9,0.6-1.4,1
								c2.5-0.7,5-1.3,7.5-1.7C34.8,19,36,20.2,37.3,21.6z M40.6,26.2c0.1-0.9,1-1.5,1.9-1.4c0.9,0.1,1.5,1,1.4,1.9
								c-0.1,0.9-1,1.5-1.9,1.4C41.1,27.9,40.5,27.1,40.6,26.2z"/>
						</g>
						<g>
							<path fill="#054366" d="M28.6,69.2c-0.3-0.4-0.6-0.8-0.9-1.2c-0.6-0.8-1.2-1.6-1.8-2.5c-0.1-0.2-0.3-0.4-0.4-0.5
								c-0.3-0.4-0.5-0.7-0.7-1.1c-0.3-0.4-0.5-0.7-0.7-1.1c-0.6-0.9-1.3-1.8-1.9-2.8c-0.1-0.2-0.2-0.3-0.3-0.5
								c0-0.1-0.1-0.1-0.1-0.2c-0.5-0.7-1-1.5-1.5-2.3c-2.2-3.5-4.5-7.3-6.6-11.4c0,1.1,0.2,2.1,0.3,3.1c1.8,3.2,3.6,6.2,5.4,8.9
								c0.6,0.8,1.1,1.7,1.7,2.5c0,0.1,0.1,0.1,0.1,0.2c0,0.1,0.1,0.2,0.2,0.3c0.7,1,1.3,1.9,1.9,2.8c0.3,0.4,0.6,0.9,0.9,1.3
								c0.3,0.4,0.5,0.7,0.7,1.1c0.1,0.1,0.1,0.2,0.2,0.3c0.6,0.9,1.3,1.7,1.8,2.5c0.3,0.4,0.6,0.8,0.9,1.2c0.1,0.1,0.1,0.2,0.2,0.3
								c0.7,0.4,1.5,0.8,2.2,1.2c-0.3-0.3-0.5-0.7-0.7-1C29.2,69.9,28.9,69.6,28.6,69.2z"/>
						</g>
					</g>
					<g>
						<g>
							<path fill="#054366" d="M41.6,16.5c0,0-0.1-0.1-0.1-0.1c-0.9-0.8-1.8-1.6-2.7-2.4C38.4,14,38,14,37.6,14.1
								c0.9,0.8,1.8,1.6,2.7,2.4C40.7,16.5,41.2,16.5,41.6,16.5z"/>
						</g>
						<g>
							<path fill="#054366" d="M62.6,41.2c-0.9-1.3-1.8-2.6-2.9-4.1c0,0-0.1-0.1-0.1-0.2c-0.1-0.1-0.2-0.3-0.3-0.4
								c-0.8-1.1-1.6-2.2-2.5-3.3c-0.2-0.2-0.4-0.5-0.5-0.7c-1.4-1.8-2.9-3.6-4.5-5.5c-2.9-3.3-6.1-6.8-9.7-10.2c-0.4,0-0.8,0-1.3,0
								l0,0c3.9,3.6,7.3,7.1,10.3,10.6c1.5,1.7,2.9,3.4,4.3,5c0.1,0.1,0.1,0.2,0.2,0.3c0.2,0.2,0.4,0.4,0.6,0.7
								c0.9,1.1,1.8,2.2,2.6,3.2c0.1,0.2,0.3,0.3,0.4,0.5c0,0,0,0.1,0.1,0.1c1.1,1.5,2.1,2.8,3,4c0.9,1.3,1.8,2.6,2.6,3.6
								c0.7,1.1,1.4,2.1,2,3c0.6,0.9,1.1,1.6,1.5,2.2c0.7,1.2,1.2,1.8,1.2,1.8s-0.4-0.7-1.1-1.9c-0.4-0.6-0.8-1.4-1.4-2.3
								c-0.6-0.9-1.2-1.9-1.9-3C64.3,43.8,63.5,42.5,62.6,41.2z"/>
						</g>
						<g>
							<path fill="#054366" d="M37.4,67.8c0.1-0.2,0.3-0.5,0.3-0.7c0.2-1.1-0.5-2-1.6-2.2c-0.4-0.1-0.8,0-1.1,0.1
								c-1.5-1.8-2.9-3.7-4.4-5.6c-0.3-0.4-0.5-0.7-0.7-1c-0.9-1.3-1.8-2.6-2.7-3.9c-0.1-0.1-0.1-0.2-0.2-0.4
								c-0.4-0.7-0.9-1.3-1.3-1.9c-3.2-4.8-6.2-9.9-8.9-15.3c-0.5-1-1-2.1-1.5-3.1c-0.2,0.5-0.4,1.1-0.5,1.7c0.3,0.7,0.7,1.3,1,2
								c2.7,5.4,5.9,10.5,9.1,15.3c0.5,0.7,1,1.4,1.4,2.1c0.1,0.1,0.1,0.2,0.2,0.3c0.9,1.3,1.8,2.6,2.8,3.9c0.3,0.4,0.5,0.7,0.7,1
								c1.5,1.9,2.9,3.7,4.4,5.5c-0.2,0.3-0.3,0.5-0.4,0.9c-0.2,1.1,0.5,2,1.6,2.2c0.5,0.1,0.9,0,1.3-0.2c2,2.2,4,4.3,5.9,6.2
								c0.4,0,0.7,0,1.1,0C41.6,72.5,39.5,70.2,37.4,67.8z"/>
						</g>
					</g>
				</g>
			</g>
		</g>
		<g>
			<path fill="#054366" d="M44,13.5c16.9,0,30.5,13.7,30.5,30.5S60.9,74.5,44,74.5S13.5,60.9,13.5,44S27.1,13.5,44,13.5 M44,11
				c-8.8,0-17.1,3.4-23.4,9.7S11,35.2,11,44s3.4,17.1,9.7,23.4s14.5,9.7,23.4,9.7s17.1-3.4,23.4-9.7C73.6,61.2,77,52.9,77,44
				s-3.4-17.1-9.7-23.4C61.1,14.4,52.8,11,44,11L44,11z"/>
		</g>
	</g>
</g>
<g id="Listening" display="none">
	<g display="inline">
		<g>
			<g>
				<g>
					<g>
						<g opacity="0.75">
							<g>
								<path fill="#054366" d="M51.7,40.7c-1.1,0.7-2.2,1.4-3.3,2.1c-1.1,0.7-2.2,1.5-3.3,2.3c-0.3,0.2-0.6,0.4-0.8,0.6
									c-0.3,0.2-0.5,0.4-0.8,0.6c-0.5,0.4-1.1,0.8-1.6,1.2c-2.2,1.7-4.4,3.4-6.4,5.3c-2,1.8-3.9,3.6-5.7,5.5
									c0.3,0.4,0.5,0.7,0.7,1c1.8-1.9,3.7-3.8,5.8-5.5c2-1.8,4.2-3.7,6.3-5.3c0.5-0.4,1.1-0.8,1.6-1.2c0.3-0.2,0.5-0.4,0.8-0.6
									s0.5-0.4,0.8-0.6c1.1-0.8,2.2-1.5,3.2-2.3c1.1-0.7,2.2-1.4,3.2-2.1c0.1-0.1,0.3-0.2,0.4-0.2c-0.2-0.3-0.4-0.5-0.5-0.8
									C52,40.6,51.9,40.7,51.7,40.7z"/>
							</g>
							<g>
								<path fill="#054366" d="M70.3,31.9c-0.6,0.2-1.2,0.4-1.9,0.7c-0.4,0.1-0.7,0.3-1.1,0.4c-0.4,0.1-0.7,0.3-1.1,0.4
									c-0.8,0.3-1.6,0.7-2.5,1c-0.9,0.4-1.8,0.8-2.7,1.3c-0.5,0.3-1.1,0.5-1.7,0.8c0.1,0.1,0.2,0.3,0.3,0.4c0,0,0.1,0.1,0.1,0.2
									c0.5-0.3,1-0.6,1.5-0.8c0.9-0.5,1.8-0.9,2.7-1.3c0.9-0.4,1.7-0.7,2.5-1.1c0.4-0.2,0.7-0.4,1.1-0.5c0.4-0.1,0.7-0.3,1.1-0.4
									c0.7-0.3,1.3-0.5,1.8-0.7c0.6-0.2,1.1-0.4,1.5-0.5c0-0.1-0.1-0.1-0.1-0.2l0,0C71.4,31.6,70.8,31.7,70.3,31.9z"/>
							</g>
							<g>
								<path fill="#054366" d="M24.8,64c0.3,0.4,0.5,0.7,0.7,1.1c1.4-1.7,2.8-3.3,4.4-5c-0.3-0.4-0.5-0.7-0.7-1
									C27.6,60.6,26.1,62.3,24.8,64z"/>
							</g>
							<g>
								<path fill="#054366" d="M24.1,64.8c-0.4,0.5-0.7,0.9-1.1,1.4c0.3,0.3,0.6,0.6,0.9,0.8c0.3-0.4,0.6-0.8,0.9-1.2
									C24.6,65.5,24.3,65.2,24.1,64.8z"/>
							</g>
							<g>
								<path fill="#054366" d="M58.8,36.7c-0.3,0.1-0.6,0.3-0.8,0.4c-0.5,0.3-1,0.5-1.5,0.8c-0.5,0.3-1,0.6-1.5,0.9
									c-0.5,0.3-1.1,0.6-1.6,0.9c-0.1,0.1-0.3,0.2-0.4,0.3c0.2,0.3,0.4,0.5,0.5,0.8c0.1-0.1,0.3-0.2,0.4-0.3c0.5-0.3,1-0.6,1.5-1
									c0.5-0.3,1-0.6,1.5-0.9c0.5-0.3,1-0.6,1.5-0.8c0.3-0.2,0.6-0.4,0.9-0.5c0,0,0-0.1-0.1-0.1C59.1,37,59,36.9,58.8,36.7z"/>
							</g>
						</g>
						<g opacity="0.5">
							<g>
								<path fill="#054366" d="M37.3,21.6c0.9,1,1.8,2,2.7,3c-0.3,0.4-0.5,0.9-0.6,1.4c-0.2,1.6,0.8,3.1,2.4,3.3
									c0.7,0.1,1.3,0,1.8-0.4c1.9,2.4,3.7,4.8,5.4,7.2c0.1,0.2,0.2,0.3,0.4,0.5c0.1,0.2,0.3,0.4,0.4,0.7c0.7,1.1,1.5,2.2,2.2,3.3
									c0.2,0.3,0.4,0.5,0.5,0.8c2.1,3.3,4,6.5,5.8,9.6c2.7,4.9,4.9,9.7,6.7,14.2c0.1,0.2,0.2,0.4,0.3,0.7c0.2-0.1,0.3-0.3,0.5-0.5
									c0-0.1-0.1-0.3-0.1-0.4c-1.7-4.6-3.9-9.5-6.6-14.4c-1.7-3.2-3.6-6.5-5.7-9.8c-0.2-0.3-0.4-0.5-0.5-0.8
									c-0.7-1.1-1.5-2.2-2.2-3.3c-0.1-0.2-0.3-0.4-0.4-0.7c-0.1-0.2-0.2-0.4-0.4-0.5c-1.7-2.4-3.5-4.9-5.4-7.3
									c0.4-0.4,0.6-0.9,0.7-1.4c0.2-1.6-0.8-3.1-2.4-3.3c-0.7-0.1-1.3,0-1.8,0.4c-0.9-1.1-1.8-2.1-2.8-3.1
									c-1.1-1.1-2.1-2.2-3.3-3.3c0.2,0,0.4,0,0.7-0.1c1.8-0.2,3.6-0.4,5.3-0.4c0.4,0,0.8,0,1.3,0c1.7,0,3.3,0,4.8,0
									c3.7,0.1,7.1,0.4,10.2,0.7c0.8,0.1,1.5,0.2,2.3,0.3c0.2,0,0.4,0,0.5,0.1c-0.3-0.2-0.6-0.4-0.8-0.5c-0.7-0.1-1.3-0.2-1.9-0.3
									c-3.2-0.4-6.6-0.7-10.3-0.8c-1.7,0-3.5,0-5.3,0c-0.4,0-0.8,0-1.3,0c-1.6,0.1-3.2,0.2-4.8,0.4c-0.4,0-0.7,0.1-1.1,0.1
									c-0.5-0.5-1-1-1.5-1.5c-0.4,0.2-0.8,0.3-1.2,0.5c0.4,0.4,0.9,0.8,1.3,1.2c-1.9,0.3-3.7,0.7-5.6,1.2c-0.5,0.3-0.9,0.6-1.4,1
									c2.5-0.7,5-1.3,7.5-1.7C34.8,19,36,20.2,37.3,21.6z M40.6,26.2c0.1-0.9,1-1.5,1.9-1.4c0.9,0.1,1.5,1,1.4,1.9
									c-0.1,0.9-1,1.5-1.9,1.4C41.1,27.9,40.5,27.1,40.6,26.2z"/>
							</g>
							<g>
								<path fill="#054366" d="M28.6,69.2c-0.3-0.4-0.6-0.8-0.9-1.2c-0.6-0.8-1.2-1.6-1.8-2.5c-0.1-0.2-0.3-0.4-0.4-0.5
									c-0.3-0.4-0.5-0.7-0.7-1.1c-0.3-0.4-0.5-0.7-0.7-1.1c-0.6-0.9-1.3-1.8-1.9-2.8c-0.1-0.2-0.2-0.3-0.3-0.5
									c0-0.1-0.1-0.1-0.1-0.2c-0.5-0.7-1-1.5-1.5-2.3c-2.2-3.5-4.5-7.3-6.6-11.4c0,1.1,0.2,2.1,0.3,3.1c1.8,3.2,3.6,6.2,5.4,8.9
									c0.6,0.8,1.1,1.7,1.7,2.5c0,0.1,0.1,0.1,0.1,0.2c0,0.1,0.1,0.2,0.2,0.3c0.7,1,1.3,1.9,1.9,2.8c0.3,0.4,0.6,0.9,0.9,1.3
									c0.3,0.4,0.5,0.7,0.7,1.1c0.1,0.1,0.1,0.2,0.2,0.3c0.6,0.9,1.3,1.7,1.8,2.5c0.3,0.4,0.6,0.8,0.9,1.2
									c0.1,0.1,0.1,0.2,0.2,0.3c0.7,0.4,1.5,0.8,2.2,1.2c-0.3-0.3-0.5-0.7-0.7-1C29.2,69.9,28.9,69.6,28.6,69.2z"/>
							</g>
						</g>
						<g>
							<g>
								<path fill="#054366" d="M41.6,16.5c0,0-0.1-0.1-0.1-0.1c-0.9-0.8-1.8-1.6-2.7-2.4C38.4,14,38,14,37.6,14.1
									c0.9,0.8,1.8,1.6,2.7,2.4C40.7,16.5,41.2,16.5,41.6,16.5z"/>
							</g>
							<g>
								<path fill="#054366" d="M62.6,41.2c-0.9-1.3-1.8-2.6-2.9-4.1c0,0-0.1-0.1-0.1-0.2c-0.1-0.1-0.2-0.3-0.3-0.4
									c-0.8-1.1-1.6-2.2-2.5-3.3c-0.2-0.2-0.4-0.5-0.5-0.7c-1.4-1.8-2.9-3.6-4.5-5.5c-2.9-3.3-6.1-6.8-9.7-10.2
									c-0.4,0-0.8,0-1.3,0l0,0c3.9,3.6,7.3,7.1,10.3,10.6c1.5,1.7,2.9,3.4,4.3,5c0.1,0.1,0.1,0.2,0.2,0.3c0.2,0.2,0.4,0.4,0.6,0.7
									c0.9,1.1,1.8,2.2,2.6,3.2c0.1,0.2,0.3,0.3,0.4,0.5c0,0,0,0.1,0.1,0.1c1.1,1.5,2.1,2.8,3,4c0.9,1.3,1.8,2.6,2.6,3.6
									c0.7,1.1,1.4,2.1,2,3c0.6,0.9,1.1,1.6,1.5,2.2c0.7,1.2,1.2,1.8,1.2,1.8s-0.4-0.7-1.1-1.9c-0.4-0.6-0.8-1.4-1.4-2.3
									c-0.6-0.9-1.2-1.9-1.9-3C64.3,43.8,63.5,42.5,62.6,41.2z"/>
							</g>
							<g>
								<path fill="#054366" d="M37.4,67.8c0.1-0.2,0.3-0.5,0.3-0.7c0.2-1.1-0.5-2-1.6-2.2c-0.4-0.1-0.8,0-1.1,0.1
									c-1.5-1.8-2.9-3.7-4.4-5.6c-0.3-0.4-0.5-0.7-0.7-1c-0.9-1.3-1.8-2.6-2.7-3.9c-0.1-0.1-0.1-0.2-0.2-0.4
									c-0.4-0.7-0.9-1.3-1.3-1.9c-3.2-4.8-6.2-9.9-8.9-15.3c-0.5-1-1-2.1-1.5-3.1c-0.2,0.5-0.4,1.1-0.5,1.7c0.3,0.7,0.7,1.3,1,2
									c2.7,5.4,5.9,10.5,9.1,15.3c0.5,0.7,1,1.4,1.4,2.1c0.1,0.1,0.1,0.2,0.2,0.3c0.9,1.3,1.8,2.6,2.8,3.9c0.3,0.4,0.5,0.7,0.7,1
									c1.5,1.9,2.9,3.7,4.4,5.5c-0.2,0.3-0.3,0.5-0.4,0.9c-0.2,1.1,0.5,2,1.6,2.2c0.5,0.1,0.9,0,1.3-0.2c2,2.2,4,4.3,5.9,6.2
									c0.4,0,0.7,0,1.1,0C41.6,72.5,39.5,70.2,37.4,67.8z"/>
							</g>
						</g>
					</g>
				</g>
			</g>
			<g>
				<path fill="#054366" d="M44,13.5c16.9,0,30.5,13.7,30.5,30.5S60.9,74.5,44,74.5S13.5,60.9,13.5,44S27.1,13.5,44,13.5 M44,11
					c-8.8,0-17.1,3.4-23.4,9.7S11,35.2,11,44s3.4,17.1,9.7,23.4s14.5,9.7,23.4,9.7s17.1-3.4,23.4-9.7C73.6,61.2,77,52.9,77,44
					s-3.4-17.1-9.7-23.4C61.1,14.4,52.8,11,44,11L44,11z"/>
			</g>
		</g>
		<g>
			<path fill="#054366" d="M44,83.6C22.3,83.6,4.6,66,4.6,44.2S22.3,4.8,44,4.8s39.4,17.6,39.4,39.4S65.7,83.6,44,83.6z M44,6.3
				c-20.9,0-37.9,17-37.9,37.9s17,37.9,37.9,37.9s37.9-17,37.9-37.9C81.9,23.4,64.9,6.3,44,6.3z"/>
		</g>
	</g>
</g>
<g id="Thinking">
	<g>
		<g>
			<g>
				<g>
					<g opacity="0.75">
						<g>
							<path fill="#FFFFFF" d="M51.1,41.2c-1,0.6-1.9,1.2-2.9,1.8c-1,0.7-1.9,1.4-2.9,2c-0.3,0.2-0.5,0.4-0.7,0.5
								c-0.2,0.2-0.5,0.4-0.7,0.5c-0.5,0.4-1,0.7-1.5,1.1c-1.9,1.5-3.9,3.1-5.8,4.8c-1.8,1.6-3.4,3.2-5.1,4.9
								c0.2,0.3,0.4,0.6,0.7,0.9c1.6-1.7,3.3-3.3,5.1-5c1.8-1.7,3.7-3.3,5.6-4.8c0.5-0.4,1-0.7,1.5-1.1c0.2-0.2,0.5-0.4,0.7-0.6
								c0.2-0.2,0.5-0.4,0.7-0.5c1-0.7,1.9-1.4,2.9-2.1c1-0.7,1.9-1.3,2.9-1.9c0.1-0.1,0.2-0.1,0.3-0.2c-0.1-0.2-0.3-0.5-0.5-0.7
								C51.3,41.1,51.2,41.1,51.1,41.2z"/>
						</g>
						<g>
							<path fill="#FFFFFF" d="M67.6,33.4c-0.5,0.2-1.1,0.4-1.7,0.6c-0.3,0.1-0.6,0.2-1,0.4c-0.4,0.1-0.7,0.3-1,0.4
								c-0.7,0.3-1.5,0.6-2.2,0.9c-0.8,0.4-1.6,0.7-2.4,1.1c-0.5,0.2-1,0.5-1.5,0.7c0.1,0.1,0.2,0.3,0.3,0.4c0,0,0.1,0.1,0.1,0.2
								c0.4-0.3,0.9-0.5,1.4-0.7c0.8-0.4,1.6-0.8,2.4-1.2c0.7-0.4,1.5-0.7,2.2-1c0.4-0.1,0.7-0.3,1-0.4c0.3-0.1,0.7-0.3,0.9-0.4
								c0.6-0.2,1.1-0.4,1.7-0.7c0.5-0.2,1-0.4,1.4-0.5c0-0.1,0-0.1-0.1-0.2l0,0C68.6,33,68.2,33.1,67.6,33.4z"/>
						</g>
						<g>
							<path fill="#FFFFFF" d="M27,62c0.2,0.3,0.4,0.6,0.7,1c1.2-1.5,2.6-3,3.9-4.4c-0.2-0.3-0.4-0.6-0.7-0.9
								C29.5,59,28.2,60.5,27,62z"/>
						</g>
						<g>
							<path fill="#FFFFFF" d="M26.4,62.7c-0.4,0.4-0.7,0.8-1,1.2c0.3,0.3,0.6,0.5,0.8,0.7c0.3-0.4,0.5-0.7,0.8-1.1
								C26.8,63.4,26.6,63.1,26.4,62.7z"/>
						</g>
						<g>
							<path fill="#FFFFFF" d="M57.4,37.7c-0.3,0.1-0.5,0.3-0.7,0.4c-0.4,0.2-0.9,0.5-1.4,0.7c-0.5,0.2-0.9,0.5-1.4,0.8
								c-0.5,0.3-0.9,0.5-1.4,0.8c-0.1,0.1-0.3,0.1-0.4,0.2c0.1,0.2,0.3,0.4,0.4,0.7c0.1-0.1,0.2-0.1,0.4-0.2
								c0.5-0.3,0.9-0.6,1.4-0.8c0.4-0.3,0.9-0.6,1.4-0.8c0.4-0.3,0.9-0.5,1.3-0.7c0.3-0.2,0.6-0.3,0.8-0.5c0,0,0-0.1-0.1-0.1
								C57.6,37.9,57.5,37.8,57.4,37.7z"/>
						</g>
					</g>
					<g opacity="0.5">
						<g>
							<path fill="#FFFFFF" d="M38.1,24.1c0.8,0.9,1.7,1.8,2.5,2.7c-0.3,0.4-0.5,0.8-0.6,1.2c-0.2,1.4,0.7,2.7,2.2,2.9
								c0.6,0.1,1.2,0,1.7-0.3c1.7,2.1,3.3,4.3,4.8,6.4c0.1,0.1,0.2,0.3,0.3,0.4c0.1,0.2,0.3,0.4,0.4,0.6c0.7,1,1.4,2,2,2.9
								c0.2,0.2,0.3,0.5,0.5,0.7c1.9,2.9,3.6,5.8,5.2,8.6c2.4,4.4,4.4,8.7,6,12.7c0.1,0.2,0.1,0.4,0.2,0.6c0.1-0.1,0.3-0.3,0.4-0.4
								c0-0.1-0.1-0.2-0.1-0.4c-1.5-4.1-3.5-8.4-5.9-12.8c-1.5-2.9-3.3-5.8-5.1-8.7c-0.1-0.2-0.3-0.4-0.4-0.7c-0.7-1-1.3-2-2-2.9
								c-0.1-0.2-0.3-0.4-0.4-0.6c-0.1-0.2-0.2-0.3-0.3-0.5c-1.5-2.2-3.1-4.4-4.8-6.5c0.3-0.4,0.5-0.8,0.6-1.3
								c0.2-1.4-0.7-2.7-2.2-2.9c-0.6-0.1-1.2,0-1.7,0.3c-0.8-0.9-1.6-1.8-2.5-2.8c-0.9-1-1.9-2-2.9-2.9c0.2,0,0.4,0,0.6-0.1
								c1.6-0.2,3.2-0.3,4.8-0.4c0.4,0,0.7,0,1.1,0c1.5,0,2.9,0,4.4,0c3.3,0.1,6.3,0.3,9.2,0.7c0.7,0.1,1.4,0.2,2.1,0.3
								c0.2,0,0.3,0,0.5,0.1c-0.3-0.1-0.5-0.3-0.7-0.4c-0.6-0.1-1.1-0.2-1.8-0.3c-2.8-0.4-5.9-0.6-9.2-0.7c-1.5,0-3.1,0-4.8,0
								c-0.4,0-0.7,0-1.1,0c-1.4,0.1-2.9,0.2-4.4,0.4c-0.3,0-0.7,0.1-1,0.1c-0.4-0.4-0.9-0.9-1.4-1.3c-0.4,0.1-0.7,0.3-1.1,0.4
								c0.4,0.4,0.8,0.7,1.1,1.1c-1.7,0.3-3.3,0.6-5,1.1c-0.4,0.3-0.8,0.6-1.2,0.8c2.2-0.7,4.4-1.2,6.7-1.5
								C35.9,21.7,37,22.9,38.1,24.1z M41.1,28.2c0.1-0.8,0.9-1.4,1.7-1.3c0.8,0.1,1.4,0.9,1.2,1.7c-0.1,0.8-0.9,1.4-1.7,1.2
								C41.6,29.8,41,29,41.1,28.2z"/>
						</g>
						<g>
							<path fill="#FFFFFF" d="M30.4,66.7c-0.3-0.4-0.5-0.7-0.8-1.1c-0.5-0.7-1.1-1.5-1.6-2.2c-0.1-0.2-0.2-0.3-0.4-0.5
								c-0.2-0.3-0.4-0.6-0.7-1c-0.2-0.3-0.4-0.6-0.7-0.9c-0.6-0.8-1.1-1.7-1.7-2.6c-0.1-0.1-0.2-0.3-0.3-0.4c0-0.1-0.1-0.1-0.1-0.2
								c-0.4-0.7-0.9-1.4-1.3-2c-2-3.1-4-6.5-5.9-10.2c0,0.9,0.1,1.8,0.3,2.7c1.6,2.9,3.2,5.5,4.8,8c0.5,0.7,1,1.5,1.5,2.2
								c0,0,0.1,0.1,0.1,0.2c0,0.1,0.1,0.2,0.2,0.3c0.6,0.9,1.2,1.7,1.8,2.5c0.3,0.4,0.6,0.8,0.8,1.1c0.2,0.3,0.4,0.6,0.7,1
								c0,0.1,0.1,0.2,0.2,0.3c0.6,0.7,1.1,1.5,1.7,2.2c0.3,0.4,0.5,0.7,0.8,1.1c0,0.1,0.1,0.2,0.2,0.2c0.6,0.4,1.3,0.7,1.9,1.1
								c-0.2-0.3-0.4-0.6-0.7-0.9C30.9,67.3,30.6,67,30.4,66.7z"/>
						</g>
					</g>
					<g>
						<g>
							<path fill="#FFFFFF" d="M42,19.5C42,19.5,41.9,19.4,42,19.5c-0.9-0.8-1.7-1.5-2.5-2.2c-0.4,0-0.7,0.1-1.1,0.2
								c0.8,0.7,1.6,1.4,2.4,2.1C41.3,19.5,41.6,19.5,42,19.5z"/>
						</g>
						<g>
							<path fill="#FFFFFF" d="M60.8,41.7c-0.8-1.1-1.7-2.4-2.6-3.7c0,0-0.1-0.1-0.1-0.2c-0.1-0.1-0.2-0.3-0.3-0.4
								c-0.7-0.9-1.4-1.9-2.2-2.9c-0.2-0.2-0.3-0.4-0.5-0.6c-1.2-1.6-2.6-3.2-4-4.9c-2.6-2.9-5.4-6-8.6-9.1c-0.4,0-0.7,0-1.1,0l0,0
								c3.5,3.2,6.6,6.4,9.2,9.5c1.4,1.5,2.6,3,3.8,4.5c0.1,0.1,0.1,0.2,0.2,0.3c0.2,0.2,0.4,0.4,0.5,0.6c0.8,1,1.5,1.9,2.3,2.9
								c0.1,0.1,0.2,0.3,0.3,0.4c0,0,0,0.1,0.1,0.1c1,1.3,1.9,2.5,2.7,3.7c0.8,1.2,1.6,2.2,2.3,3.3c0.7,1,1.3,1.9,1.8,2.6
								c0.5,0.7,0.9,1.5,1.3,2c0.7,1.1,1.1,1.7,1.1,1.7s-0.4-0.6-1-1.7c-0.4-0.5-0.7-1.2-1.2-2c-0.5-0.8-1.1-1.7-1.7-2.7
								C62.3,44,61.6,42.9,60.8,41.7z"/>
						</g>
						<g>
							<path fill="#FFFFFF" d="M38.2,65.3c0.1-0.2,0.2-0.4,0.3-0.7c0.2-0.9-0.5-1.8-1.4-2c-0.4,0-0.7,0-1,0.1
								c-1.3-1.6-2.6-3.3-3.9-5c-0.2-0.3-0.4-0.6-0.7-0.9c-0.8-1.1-1.6-2.3-2.4-3.5c-0.1-0.1-0.1-0.2-0.2-0.3
								c-0.4-0.6-0.8-1.1-1.1-1.7c-2.8-4.3-5.5-8.8-7.9-13.6c-0.5-0.9-0.9-1.8-1.4-2.8c-0.2,0.5-0.4,1-0.5,1.5
								c0.3,0.6,0.6,1.2,0.9,1.8c2.5,4.8,5.2,9.4,8.1,13.7c0.4,0.6,0.8,1.2,1.3,1.8c0.1,0.1,0.1,0.2,0.2,0.3
								c0.8,1.2,1.7,2.3,2.5,3.5c0.2,0.3,0.4,0.6,0.7,0.9c1.3,1.7,2.6,3.3,3.9,4.9c-0.2,0.2-0.3,0.5-0.4,0.8c-0.2,0.9,0.5,1.8,1.4,2
								c0.4,0.1,0.8,0,1.1-0.2c1.8,2,3.6,3.8,5.3,5.5c0.3,0,0.6,0,1,0C42,69.6,40.1,67.5,38.2,65.3z"/>
						</g>
					</g>
				</g>
			</g>
		</g>
		<g>
			<path fill="#FFFFFF" d="M44.1,16.9c15.1,0,27.3,12.2,27.3,27.3S59.2,71.4,44.1,71.4S16.9,59.2,16.9,44.1S29.1,16.9,44.1,16.9
				 M44.1,14.7c-7.9,0-15.3,3.1-20.9,8.6c-5.6,5.6-8.6,13-8.6,20.9s3.1,15.3,8.6,20.9c5.6,5.6,13,8.6,20.9,8.6S59.4,70.5,65,65
				c5.6-5.6,8.6-13,8.6-20.9S70.5,28.8,65,23.3C59.4,17.7,52.1,14.7,44.1,14.7L44.1,14.7z"/>
		</g>
		<g>
			<g>
				<path fill="#FFFFFF" d="M41.2,81.8l-1.4-0.1c-9.2-1-17.6-5.4-23.8-12.3c-6.2-7-9.7-15.9-9.7-25.2h1.5c0,9,3.3,17.6,9.3,24.2
					C23.1,75,31.2,79.2,40,80.2l1.4,0.1L41.2,81.8z"/>
			</g>
			<g>
				<path fill="#FFFFFF" d="M81.8,44.2h-1.5c0-9.1-3.4-17.8-9.5-24.5C64.7,13.1,56.5,8.9,47.5,8.1l0.1-1.5c9.3,0.9,18,5.1,24.3,12.1
					C78.3,25.7,81.8,34.7,81.8,44.2z"/>
			</g>
		</g>
		<g>
			<path fill="#FFFFFF" d="M81,51.5c-2.5,0-4.4-2-4.4-4.4c0-2.5,2-4.4,4.4-4.4s4.4,2,4.4,4.4C85.5,49.5,83.5,51.5,81,51.5z M81,44.4
				c-1.5,0-2.7,1.2-2.7,2.7c0,1.5,1.2,2.7,2.7,2.7c1.5,0,2.7-1.2,2.7-2.7S82.5,44.4,81,44.4z"/>
		</g>
		<g>
			<path fill="#FFFFFF" d="M7,45.4c-2.5,0-4.4-2-4.4-4.4c0-2.5,2-4.4,4.4-4.4c2.5,0,4.4,2,4.4,4.4C11.5,43.4,9.5,45.4,7,45.4z
				 M7,38.2c-1.5,0-2.7,1.2-2.7,2.7s1.2,2.7,2.7,2.7s2.7-1.2,2.7-2.7C9.8,39.5,8.6,38.2,7,38.2z"/>
		</g>
	</g>
</g>
<g id="Complete" display="none">
	<g display="inline">
		<g>
			<g>
				<g>
					<g>
						<g opacity="0.75">
							<path fill="#054366" d="M51,41.3c-1,0.6-1.9,1.2-2.9,1.8c-1,0.7-1.9,1.4-2.9,2c-0.3,0.2-0.5,0.4-0.7,0.5
								c-0.3,0.2-0.5,0.4-0.7,0.5c-0.5,0.4-1,0.7-1.5,1.1c-1.9,1.5-3.9,3.1-5.8,4.8c-1.8,1.6-3.5,3.2-5.1,4.9
								c0.2,0.3,0.4,0.6,0.7,0.9c1.6-1.7,3.4-3.4,5.1-5c1.8-1.7,3.7-3.3,5.6-4.8c0.5-0.4,1-0.7,1.5-1.1c0.2-0.2,0.5-0.4,0.7-0.6
								c0.2-0.2,0.5-0.4,0.7-0.5c1-0.7,1.9-1.4,2.9-2.1c1-0.7,1.9-1.3,2.9-1.9c0.1-0.1,0.2-0.1,0.3-0.2c-0.2-0.2-0.3-0.5-0.5-0.7
								C51.2,41.2,51.1,41.2,51,41.3z"/>
							<path fill="#054366" d="M67.5,33.4c-0.5,0.2-1.1,0.4-1.7,0.6c-0.3,0.1-0.6,0.2-1,0.4c-0.4,0.1-0.7,0.3-1,0.4
								c-0.7,0.3-1.5,0.6-2.2,0.9c-0.8,0.4-1.6,0.7-2.4,1.1c-0.5,0.2-1,0.5-1.5,0.7c0.1,0.1,0.2,0.3,0.3,0.4c0,0,0.1,0.1,0.1,0.2
								c0.4-0.3,0.9-0.5,1.4-0.7c0.8-0.4,1.6-0.8,2.4-1.2c0.8-0.4,1.5-0.7,2.2-1c0.4-0.1,0.7-0.3,1-0.4c0.3-0.1,0.7-0.3,1-0.4
								c0.6-0.2,1.2-0.4,1.7-0.7c0.5-0.2,1-0.4,1.4-0.5c0-0.1,0-0.1-0.1-0.2l0,0C68.6,33.1,68.1,33.2,67.5,33.4z"/>
							<path fill="#054366" d="M26.8,62.1c0.2,0.3,0.4,0.7,0.7,1c1.2-1.5,2.6-3,3.9-4.4c-0.2-0.3-0.4-0.6-0.7-0.9
								C29.3,59.1,28,60.6,26.8,62.1z"/>
							<path fill="#054366" d="M26.2,62.9c-0.4,0.4-0.7,0.8-1,1.2c0.3,0.3,0.6,0.5,0.8,0.7c0.3-0.4,0.5-0.7,0.8-1.1
								C26.6,63.5,26.4,63.2,26.2,62.9z"/>
							<path fill="#054366" d="M57.3,37.8c-0.3,0.1-0.5,0.3-0.7,0.4c-0.4,0.2-0.9,0.5-1.4,0.7c-0.5,0.2-0.9,0.5-1.4,0.8
								c-0.5,0.3-0.9,0.5-1.4,0.8c-0.1,0.1-0.3,0.1-0.4,0.2c0.1,0.2,0.3,0.4,0.4,0.7c0.1-0.1,0.2-0.1,0.4-0.2
								c0.5-0.3,0.9-0.6,1.4-0.8c0.4-0.3,0.9-0.6,1.4-0.8c0.4-0.3,0.9-0.5,1.3-0.7c0.3-0.2,0.6-0.3,0.8-0.5c0,0,0-0.1-0.1-0.1
								C57.5,38,57.4,37.9,57.3,37.8z"/>
						</g>
						<g opacity="0.5">
							<path fill="#054366" d="M38,24.2c0.8,0.9,1.7,1.8,2.5,2.7c-0.3,0.4-0.5,0.8-0.6,1.2c-0.2,1.4,0.7,2.7,2.2,2.9
								c0.6,0.1,1.2,0,1.7-0.3c1.7,2.1,3.3,4.3,4.8,6.4c0.1,0.1,0.2,0.3,0.3,0.4c0.1,0.2,0.3,0.4,0.4,0.6c0.7,1,1.4,2,2,2.9
								c0.2,0.2,0.3,0.5,0.5,0.7c1.9,2.9,3.7,5.8,5.2,8.6c2.4,4.4,4.4,8.7,6,12.8c0.1,0.2,0.1,0.4,0.2,0.6c0.1-0.1,0.3-0.3,0.4-0.4
								c0-0.1-0.1-0.2-0.1-0.4C62,59,60,54.6,57.6,50.2c-1.5-2.9-3.3-5.8-5.1-8.8c-0.1-0.2-0.3-0.4-0.4-0.7c-0.7-1-1.3-2-2-2.9
								c-0.1-0.2-0.3-0.4-0.4-0.6c-0.1-0.2-0.2-0.3-0.3-0.5c-1.5-2.2-3.1-4.4-4.8-6.5c0.3-0.4,0.5-0.8,0.6-1.3
								c0.2-1.4-0.7-2.8-2.2-2.9c-0.6-0.1-1.2,0-1.7,0.3c-0.8-0.9-1.6-1.8-2.5-2.8c-0.9-1-1.9-2-2.9-3c0.2,0,0.4,0,0.6-0.1
								c1.6-0.2,3.2-0.3,4.8-0.4c0.4,0,0.7,0,1.1,0c1.5,0,2.9,0,4.4,0c3.3,0.1,6.3,0.3,9.2,0.7c0.7,0.1,1.4,0.2,2.1,0.3
								c0.2,0,0.3,0,0.5,0.1c-0.3-0.1-0.5-0.3-0.7-0.4c-0.6-0.1-1.1-0.2-1.8-0.3c-2.8-0.4-5.9-0.6-9.2-0.7c-1.5,0-3.2,0-4.8,0
								c-0.4,0-0.7,0-1.1,0c-1.4,0.1-2.9,0.2-4.4,0.4c-0.3,0-0.7,0.1-1,0.1c-0.4-0.4-0.9-0.9-1.4-1.3c-0.4,0.1-0.7,0.3-1.1,0.4
								c0.4,0.4,0.8,0.7,1.1,1.1c-1.7,0.3-3.3,0.6-5.1,1.1c-0.4,0.3-0.8,0.6-1.2,0.9c2.2-0.7,4.5-1.2,6.7-1.5
								C35.7,21.8,36.9,23,38,24.2z M41,28.2c0.1-0.8,0.9-1.4,1.7-1.3c0.8,0.1,1.4,0.9,1.3,1.7c-0.1,0.8-0.9,1.4-1.7,1.3
								C41.4,29.8,40.9,29.1,41,28.2z"/>
							<path fill="#054366" d="M30.2,66.8c-0.3-0.4-0.5-0.7-0.8-1.1c-0.5-0.7-1.1-1.5-1.6-2.2c-0.1-0.2-0.2-0.3-0.4-0.5
								c-0.2-0.3-0.4-0.6-0.7-1c-0.2-0.3-0.4-0.6-0.7-0.9c-0.6-0.8-1.1-1.7-1.7-2.6c-0.1-0.1-0.2-0.3-0.3-0.4c0-0.1-0.1-0.1-0.1-0.2
								c-0.4-0.7-0.9-1.4-1.3-2c-2-3.1-4-6.5-5.9-10.2c0,0.9,0.1,1.8,0.3,2.8c1.6,2.9,3.2,5.5,4.8,8c0.5,0.7,1,1.5,1.5,2.2
								c0,0,0.1,0.1,0.1,0.2c0,0.1,0.1,0.2,0.2,0.3c0.6,0.9,1.2,1.7,1.8,2.5c0.3,0.4,0.6,0.8,0.8,1.1c0.2,0.3,0.4,0.6,0.7,1
								c0,0.1,0.1,0.2,0.2,0.3c0.6,0.8,1.1,1.5,1.7,2.2c0.3,0.4,0.5,0.7,0.8,1.1c0,0.1,0.1,0.2,0.2,0.2c0.6,0.4,1.3,0.7,2,1.1
								c-0.2-0.3-0.4-0.6-0.7-0.9C30.7,67.5,30.4,67.1,30.2,66.8z"/>
						</g>
						<g>
							<path fill="#054366" d="M41.9,19.5C41.8,19.5,41.8,19.4,41.9,19.5c-0.9-0.8-1.7-1.5-2.5-2.2c-0.4,0-0.7,0.1-1.1,0.2
								c0.8,0.7,1.6,1.4,2.4,2.1C41.1,19.6,41.5,19.6,41.9,19.5z"/>
							<path fill="#054366" d="M60.7,41.8c-0.8-1.1-1.7-2.4-2.6-3.7c0,0-0.1-0.1-0.1-0.2c-0.1-0.1-0.2-0.3-0.3-0.4
								c-0.7-0.9-1.4-1.9-2.2-2.9c-0.2-0.2-0.3-0.4-0.5-0.6c-1.2-1.6-2.6-3.2-4-4.9c-2.6-2.9-5.5-6.1-8.7-9.2c-0.4,0-0.7,0-1.1,0
								l0,0c3.5,3.2,6.6,6.4,9.3,9.5c1.4,1.5,2.6,3,3.8,4.5c0.1,0.1,0.1,0.2,0.2,0.3c0.2,0.2,0.4,0.4,0.5,0.6c0.8,1,1.5,1.9,2.3,2.9
								c0.1,0.1,0.2,0.3,0.3,0.4c0,0,0,0.1,0.1,0.1c1,1.3,1.9,2.5,2.7,3.7c0.8,1.2,1.6,2.3,2.3,3.3c0.7,1,1.3,1.9,1.8,2.7
								c0.5,0.7,0.9,1.5,1.3,2c0.7,1.1,1.1,1.7,1.1,1.7s-0.4-0.6-1-1.7c-0.4-0.5-0.7-1.2-1.2-2c-0.5-0.8-1.1-1.7-1.7-2.7
								C62.2,44,61.5,42.9,60.7,41.8z"/>
							<path fill="#054366" d="M38.1,65.5c0.1-0.2,0.2-0.4,0.3-0.7c0.2-0.9-0.5-1.8-1.4-2c-0.4,0-0.7,0-1,0.1
								c-1.3-1.6-2.6-3.3-3.9-5.1c-0.2-0.3-0.4-0.6-0.7-0.9c-0.8-1.1-1.6-2.3-2.5-3.5c-0.1-0.1-0.1-0.2-0.2-0.3
								c-0.4-0.6-0.8-1.1-1.2-1.7c-2.8-4.3-5.5-8.8-8-13.6C19,37,18.6,36,18.1,35.1c-0.2,0.5-0.4,1-0.5,1.5c0.3,0.6,0.6,1.2,0.9,1.8
								c2.5,4.8,5.2,9.4,8.1,13.7c0.4,0.6,0.8,1.2,1.3,1.8c0.1,0.1,0.1,0.2,0.2,0.3c0.8,1.2,1.7,2.3,2.5,3.5
								c0.2,0.3,0.4,0.6,0.7,0.9c1.3,1.7,2.6,3.3,3.9,4.9c-0.2,0.2-0.3,0.5-0.4,0.8c-0.2,0.9,0.5,1.8,1.4,2c0.4,0.1,0.8,0,1.1-0.2
								c1.8,2,3.6,3.8,5.3,5.5c0.3,0,0.7,0,1,0C41.9,69.7,40,67.7,38.1,65.5z"/>
						</g>
					</g>
				</g>
			</g>
			<path fill="#054366" d="M44,16.9c15.1,0,27.4,12.2,27.4,27.4S59.1,71.6,44,71.6S16.6,59.4,16.6,44.3S28.9,16.9,44,16.9 M44,14.7
				c-7.9,0-15.4,3.1-20.9,8.7s-8.7,13-8.7,20.9s3.1,15.4,8.7,20.9s13,8.7,20.9,8.7s15.4-3.1,20.9-8.7c5.6-5.6,8.7-13,8.7-20.9
				s-3.1-15.4-8.7-20.9C59.4,17.7,51.9,14.7,44,14.7L44,14.7z"/>
		</g>
		<path fill="#054366" d="M44,7.9c0.4,0,0.6,0.3,0.6,0.6c0,0.4-0.3,0.6-0.6,0.6s-0.6-0.3-0.6-0.6C43.4,8.2,43.7,7.9,44,7.9 M44,6.9
			c-0.9,0-1.7,0.7-1.7,1.7s0.7,1.7,1.7,1.7c0.9,0,1.7-0.7,1.7-1.7C45.7,7.6,45,6.9,44,6.9L44,6.9z"/>
		<path fill="#054366" d="M44,80.7c0.3,0,0.4,0.2,0.4,0.4c0,0.3-0.2,0.4-0.4,0.4s-0.4-0.2-0.4-0.4S43.8,80.7,44,80.7 M44,79.7
			c-0.8,0-1.5,0.7-1.5,1.5c0,0.8,0.7,1.5,1.5,1.5c0.8,0,1.5-0.7,1.5-1.5C45.5,80.4,44.9,79.7,44,79.7L44,79.7z"/>
	</g>
</g>
</svg>
